<svg xmlns="http://www.w3.org/2000/svg" xmlns:xlink="http://www.w3.org/1999/xlink" width="1024" height="1024" viewBox="0 0 1024 1024"><defs><clipPath id="b"><rect width="1024" height="1024"></rect></clipPath></defs><g id="a" clip-path="url(#b)"><path d="M285.542,766.193c161.538,0,254-138.143,254-303.023,0-165.994-92.467-303.023-254-303.023-81.326,0-145.941,38.992-180.477,95.809V-45.952H4.8V753.939H105.065V669.271C139.6,727.2,204.216,766.193,285.542,766.193Zm-182.7-323.076c0-135.915,82.44-194.959,164.88-194.959,109.177,0,170.45,89.124,170.45,215.012,0,124.774-61.273,215.013-170.45,215.013-82.44,0-164.88-60.159-164.88-193.845ZM609.731,753.939h127V622.481h-127Z" transform="translate(141.233 151.879)" fill="#373a3b"></path></g></svg>