<?xml version="1.0" encoding="UTF-8"?> <svg xmlns="http://www.w3.org/2000/svg" xmlns:xlink="http://www.w3.org/1999/xlink" width="239.7" height="36" viewBox="0 0 239.7 36"><defs><clipPath id="a"><rect width="239.7" height="36" fill="#1d1d1d"></rect></clipPath></defs><g clip-path="url(#a)"><g clip-path="url(#a)"><rect width="239.7" height="36" fill="none"></rect></g><path d="M102.936,28l8.3-17.079h-5.255a1.854,1.854,0,0,0-1.337.529l-.062.062L88.1,28H82.44L101.223,9.21l.062-.031a8.031,8.031,0,0,1,5.6-2.24h10.729L107.383,28Zm10.885-.062,8.645-17.764a5.164,5.164,0,0,1,4.789-3.266,3,3,0,0,1,.529,0h3.607v.031L133.568,24.2H134.9a.549.549,0,0,0,.467-.249h.031l8.334-17.079H147.9l-8.676,17.764a5.163,5.163,0,0,1-4.789,3.267,3,3,0,0,1-.529,0H130.3v-.031l-2.177-17.266h-1.337a.548.548,0,0,0-.467.249h-.031l-8.334,17.079Zm32.809-.062a1.79,1.79,0,0,1-1.679-2.085,4.549,4.549,0,0,1,.373-1.151l6.624-13.564c1.337-2.613,2.986-4.138,5.567-4.138h16.264l-1.8,3.733H157.265a1.653,1.653,0,0,0-1.43.9c0,.031-6.126,12.506-6.126,12.506h15.736l-1.866,3.8Zm-122.684,0,11.6-23.862H30.29a1.854,1.854,0,0,0-1.337.529L28.89,4.6,5.66,27.843H0L25.563,2.271l.062-.031A8.031,8.031,0,0,1,31.223,0h10.7L28.393,27.875Zm27.367-.031-12.066-.031h-4.1L41.174,15.43H45.28l-4.23,8.68,10.6-.031a1.653,1.653,0,0,0,1.431-.9c0-.031,6.126-12.506,6.126-12.506H43.476l1.866-3.8H62.291A1.767,1.767,0,0,1,63.97,8.991a4.547,4.547,0,0,1-.373,1.151L56.973,23.706c-1.337,2.613-2.986,4.137-5.567,4.137Zm160.749-.031L200,27.783h-4.11L201.923,15.4h4.1L201.8,24.08l10.6-.031a1.653,1.653,0,0,0,1.431-.9c0-.031,6.126-12.506,6.126-12.506H204.224l1.866-3.8h16.949a1.785,1.785,0,0,1,1.679,2.116,4.537,4.537,0,0,1-.373,1.151l-6.624,13.564c-1.337,2.613-2.986,4.137-5.567,4.137Zm-39.868,0a1.79,1.79,0,0,1-1.679-2.084,4.55,4.55,0,0,1,.373-1.151l4.572-9.333h.031v-.031h13.9l-1.9,3.671h-9.672c-1.306,2.707-2.519,5.133-2.55,5.133h15.736l-1.866,3.8Zm-100.7,0H61.109L71.278,6.844h4.447L67.484,23.8h5.225a1.854,1.854,0,0,0,1.337-.529l.062-.062L90.466,6.844h5.691L77.5,25.541l-.062.031a8.032,8.032,0,0,1-5.6,2.24ZM228.077,11.168a2.506,2.506,0,0,1-.9-.9,2.353,2.353,0,0,1-.311-1.213,2.381,2.381,0,0,1,.342-1.213,2.287,2.287,0,0,1,.9-.9,1.994,1.994,0,0,1,1.151-.311,2.513,2.513,0,0,1,1.213.311,2.288,2.288,0,0,1,.9.9,2.563,2.563,0,0,1,.342,1.213,2.353,2.353,0,0,1-.311,1.213,2.436,2.436,0,0,1-3.326.9Zm.218-3.827a1.6,1.6,0,0,0-.715.716,1.932,1.932,0,0,0-.28,1,2.117,2.117,0,0,0,.249.965,1.759,1.759,0,0,0,.715.715,1.787,1.787,0,0,0,.964.249,2.114,2.114,0,0,0,.964-.249,1.76,1.76,0,0,0,.715-.715,1.789,1.789,0,0,0,.249-.965,1.932,1.932,0,0,0-.28-1,1.973,1.973,0,0,0-.715-.716,1.785,1.785,0,0,0-.9-.249,2.117,2.117,0,0,0-.966.25ZM177.76,10.608c1.306-2.365,2.892-3.733,5.349-3.733h.094l16.171.031-1.8,3.7Zm50.38-2.831h1.368a1.1,1.1,0,0,1,.4.093.636.636,0,0,1,.249.249.826.826,0,0,1,.093.373.634.634,0,0,1-.187.467.848.848,0,0,1-.529.249,1.037,1.037,0,0,1,.187.093l.186.187a1.452,1.452,0,0,1,.187.311l.311.529h-.653l-.218-.4a1.771,1.771,0,0,0-.373-.529.666.666,0,0,0-.373-.125h-.124v1.058h-.529V7.778Zm.529,1.12h.218a2.093,2.093,0,0,0,.56-.031.651.651,0,0,0,.186-.125.312.312,0,0,0,0-.373.286.286,0,0,0-.186-.125,2.093,2.093,0,0,0-.56-.031h-.218ZM47.177,3.142V3.111l.093.031Z" transform="translate(4 4)" fill="#1d1d1d"></path></g></svg>