<?xml version="1.0" encoding="UTF-8"?> <svg xmlns="http://www.w3.org/2000/svg" xmlns:xlink="http://www.w3.org/1999/xlink" width="148.5" height="56" viewBox="0 0 148.5 56"><defs><clipPath id="a"><rect width="148.5" height="56" fill="#1d1d1d"></rect></clipPath></defs><g clip-path="url(#a)"><g clip-path="url(#a)"><rect width="148.5" height="56" fill="none"></rect></g><g transform="translate(2.601 -16.462)"><path d="M-4698.4-3172.664c-7.229-1.433-13.19-5.5-20.812-10.481h5.928c22.831,16.209,35.631,7.227,42.7,1.693-3.621,3.12-10.074,9.45-21.317,9.45a33.6,33.6,0,0,1-6.5-.662Zm-56.9-36.194c-22.832-16.208-35.63-7.225-42.7-1.693,4.266-3.678,12.473-11.814,27.814-8.787,7.231,1.431,13.19,5.5,20.811,10.48Z" transform="translate(4809.754 3240.462)" fill="#1d1d1d"></path><path d="M-4775.626-3200.56v-19.407h7.784a15.947,15.947,0,0,1,4.659.521,6.349,6.349,0,0,1,2.833,1.855,7.2,7.2,0,0,1,.944,1.368,10.645,10.645,0,0,1,.687,1.726,12.545,12.545,0,0,1,.421,1.921,15.067,15.067,0,0,1,.13,2.215,16.192,16.192,0,0,1-.393,3.68,10.828,10.828,0,0,1-1.139,2.931,6.11,6.11,0,0,1-1.793,1.952,5.939,5.939,0,0,1-1.5.782,8.1,8.1,0,0,1-1.857.359c-.749.064-1.693.1-2.866.1Zm3.551-2.931h4.559c2.084,0,3.485-.553,4.267-1.693a6.666,6.666,0,0,0,.879-2.149,11.313,11.313,0,0,0,.327-2.767,12.227,12.227,0,0,0-.458-3.322,5.62,5.62,0,0,0-1.172-2.345,3.6,3.6,0,0,0-1.53-1.01,8.413,8.413,0,0,0-2.477-.293h-4.4Zm108.256,2.9a14.2,14.2,0,0,1-4.134-.488,6.371,6.371,0,0,1-2.669-1.6,8.16,8.16,0,0,1-1.891-3.192,13.814,13.814,0,0,1-.651-4.33,14.638,14.638,0,0,1,.457-3.68,9.664,9.664,0,0,1,1.336-3,6.587,6.587,0,0,1,2.053-1.987,10.871,10.871,0,0,1,5.471-1.139h6.351v2.93h-6.057a11.762,11.762,0,0,0-1.957.163,4.308,4.308,0,0,0-1.462.488,3.813,3.813,0,0,0-1.043.88,8.812,8.812,0,0,0-1.271,5.242,11.243,11.243,0,0,0,.229,2.409,7.96,7.96,0,0,0,.62,1.921,4.636,4.636,0,0,0,.945,1.335,3.6,3.6,0,0,0,1.626.88,9.2,9.2,0,0,0,2.542.26h5.829v2.9Zm-15.893,0v-19.374h3.55v19.374Zm-12.278,0v-16.476h-6.481v-2.9h16.609v2.9h-6.579v16.476Zm-12.865,0-9.052-14.913v14.913h-3.421v-19.374h4.43l8.891,15.011v-15.011h3.419v19.374Zm-18.629,0-1.921-4.787h-8.371l-1.985,4.787h-3.975l8.012-19.374h4.4l7.849,19.374Zm-9.347-7.685h6.481l-3.224-8.3Zm-16.023,7.685-8.274-19.374h4.071l6.189,15.631,6.317-15.631h3.941l-8.37,19.374Zm-32.9,0-1.921-4.787h-8.371l-1.986,4.787H-4798l8.011-19.374h4.4l7.848,19.374Zm-9.379-7.685h6.481l-3.193-8.3Z" transform="translate(4799.399 3254.723)" fill="#1d1d1d"></path></g></g></svg>