<svg xmlns="http://www.w3.org/2000/svg" width="268.928" height="47.36" viewBox="0 0 268.928 47.36"><path d="M20.928.7C30.208.7,35.52-7.232,35.52-16.7c0-9.536-5.312-17.408-14.592-17.408a11.834,11.834,0,0,0-10.368,5.5V-45.952H4.8V0h5.76V-4.864A11.746,11.746,0,0,0,20.928.7Zm-10.5-18.56c0-7.808,4.736-11.2,9.472-11.2,6.272,0,9.792,5.12,9.792,12.352,0,7.168-3.52,12.352-9.792,12.352-4.736,0-9.472-3.456-9.472-11.136ZM56.192.7C62.848.7,67.9-2.944,69.952-8.9L64.9-10.688c-1.024,3.968-4.224,6.4-8.7,6.4-5.824,0-9.856-4.48-10.176-11.52H70.208v-1.92c0-9.28-4.928-16.384-14.272-16.384-9.088,0-15.424,7.424-15.424,17.408C40.512-6.4,46.912.7,56.192.7Zm-.32-29.888c5.824,0,8.384,4.224,8.512,8.96H46.336C47.36-25.92,51.008-29.184,55.872-29.184ZM78.272-8c0,6.4,3.264,8.32,8.96,8.32a23.662,23.662,0,0,0,5.056-.512V-5.12a17.664,17.664,0,0,1-3.648.384c-2.944,0-4.672-.64-4.672-4.16V-28.544h7.616v-4.928H83.968v-9.792h-5.7v9.792H73.088v4.928h5.184ZM107.52.576c4.544,0,8.256-1.728,10.3-4.352.7,3.2,3.648,4.416,8.768,3.776V-4.608c-2.24.512-3.584-.192-3.584-2.368V-23.3c0-7.168-4.608-10.816-12.1-10.816-6.848,0-11.776,3.9-13.376,9.344l5.44,1.408c1.024-3.712,3.52-5.7,7.744-5.7,4.48,0,6.592,2.176,6.592,6.016v1.408l-8.128,1.664C101.7-18.432,96.512-15.68,96.512-9.024,96.512-3.008,101.44.576,107.52.576Zm9.792-11.968c0,4.288-4.16,7.3-9.088,7.3-3.648,0-6.016-1.92-6.016-5.184,0-4.032,3.456-5.44,8.576-6.464l6.528-1.408Zm30.08-35.136c-1.28-.064-1.92-.128-3.072-.128-6.848,0-10.432,3.968-10.432,10.5v2.688h-5.056v4.928h5.056V0h5.76V-28.544h7.424v-4.928h-7.424v-2.3c0-4.288,1.856-5.76,5.248-5.76.96,0,1.536.064,2.5.128ZM181.056-16.7c0-10.368-6.4-17.408-15.552-17.408s-15.552,7.04-15.552,17.408S156.352.7,165.5.7,181.056-6.336,181.056-16.7Zm-25.28,0c0-7.68,3.84-12.544,9.728-12.544s9.728,4.864,9.728,12.544c0,7.616-3.84,12.48-9.728,12.48S155.776-9.088,155.776-16.7ZM205.7-33.6a21.523,21.523,0,0,0-2.3-.128,9.8,9.8,0,0,0-9.28,5.952v-5.7h-5.76V0h5.76V-18.3c0-5.888,3.9-9.728,8.768-9.728a13.168,13.168,0,0,1,2.816.256Zm12.1,13.568c0-5.44,4.1-8.7,7.936-8.7,4.736,0,6.656,3.52,6.656,8.192V0h5.76V-20.032c0-5.44,4.1-8.7,7.936-8.7,4.736,0,6.656,3.52,6.656,8.192V0h5.76V-22.08c0-7.1-4.16-12.032-11.072-12.032a12.786,12.786,0,0,0-10.688,5.7,9.761,9.761,0,0,0-9.28-5.7,11.231,11.231,0,0,0-9.664,5.184v-4.544h-5.76V0h5.76ZM266.432,0h7.3V-7.552h-7.3Z" transform="translate(-4.8 46.656)" fill="#373a3b"></path></svg>