<?xml version="1.0" encoding="UTF-8"?> <svg xmlns="http://www.w3.org/2000/svg" xmlns:xlink="http://www.w3.org/1999/xlink" width="211.8" height="44" viewBox="0 0 211.8 44"><defs><clipPath id="a"><rect width="211.8" height="44" fill="#1d1d1d"></rect></clipPath></defs><g clip-path="url(#a)"><rect width="211.8" height="44" fill="none"></rect><g transform="translate(-5825 -3248)"><path d="M140.822,26.418V21.375H158.83v5.042Zm0-10.57V10.805H158.83v5.042ZM0,8.41V3.368H5.042V8.41ZM140.822,5.042V0H158.83V5.042Z" transform="translate(5873.97 3252)" fill="#1d1d1d"></path><path d="M104.65,35.84V.365h3.53l.313,4.771a10.462,10.462,0,0,1,3.993-3.708,11.5,11.5,0,0,1,5.545-1.38,12.085,12.085,0,0,1,9.155,3.863,13.174,13.174,0,0,1,3.657,9.412,13.251,13.251,0,0,1-3.657,9.465,12.081,12.081,0,0,1-9.155,3.863,9.8,9.8,0,0,1-4.718-1.163,9.377,9.377,0,0,1-3.475-3.137V35.84Zm7.183-28.454a7.962,7.962,0,0,0-2.412,5.937,7.966,7.966,0,0,0,2.412,5.939,8.142,8.142,0,0,0,11.437.025,7.966,7.966,0,0,0,2.387-5.965,7.931,7.931,0,0,0-2.387-5.955V7.36a8.141,8.141,0,0,0-11.437.025Zm34.256,19.223a12.079,12.079,0,0,1-9.155-3.863,13.185,13.185,0,0,1-3.657-9.415,13.259,13.259,0,0,1,3.657-9.465A12.068,12.068,0,0,1,146.089,0a11.328,11.328,0,0,1,5.549,1.4,10.657,10.657,0,0,1,3.993,3.735L155.944.36h3.526l-.012,25.94h-3.526l-.3-4.77a10.458,10.458,0,0,1-3.993,3.707,11.5,11.5,0,0,1-5.452,1.376ZM140.836,7.344a8.071,8.071,0,0,0-2.387,5.989,7.988,7.988,0,0,0,2.387,5.962,8.141,8.141,0,0,0,11.437-.025,7.958,7.958,0,0,0,2.412-5.937,8.126,8.126,0,0,0-13.849-5.989ZM13.28,26.608A12.779,12.779,0,0,1,3.864,22.72a13.337,13.337,0,0,1,0-18.776A12.758,12.758,0,0,1,13.28.048,12.729,12.729,0,0,1,23.5,4.821L20.384,8.188a9.49,9.49,0,0,0-7.1-3.164A7.866,7.866,0,0,0,7.573,7.351,7.954,7.954,0,0,0,5.184,13.3a8,8,0,0,0,2.387,5.97,7.867,7.867,0,0,0,5.706,2.33,9.711,9.711,0,0,0,7.107-3.164L23.5,21.8a12.685,12.685,0,0,1-10.21,4.806Zm15.351-3.9a12.845,12.845,0,0,1-3.859-9.387A12.841,12.841,0,0,1,28.661,3.89,12.794,12.794,0,0,1,38.048,0a13.722,13.722,0,0,1,3.69.484l.232,5.482a7.913,7.913,0,0,0-3.911-.986,7.822,7.822,0,0,0-5.706,2.363,8.038,8.038,0,0,0-2.4,5.983,7.94,7.94,0,0,0,2.384,5.964,8.142,8.142,0,0,0,11.44-.028,7.965,7.965,0,0,0,2.4-5.936,9.285,9.285,0,0,0-.232-2.174l5.3.216a14.819,14.819,0,0,1,.116,1.956,12.791,12.791,0,0,1-3.889,9.387A12.854,12.854,0,0,1,38.047,26.6a12.783,12.783,0,0,1-9.416-3.888ZM55.3,26.32V.365h3.526l.363,4.978A9.322,9.322,0,0,1,63.153,1.35,11.928,11.928,0,0,1,68.783,0,11.273,11.273,0,0,1,74.83,1.557a8.9,8.9,0,0,1,3.657,4.46,9.329,9.329,0,0,1,3.968-4.486A11.835,11.835,0,0,1,88.444,0q5.394,0,8.35,3.344T99.751,12.5V26.3H94.564V12.76q0-7.778-6.9-7.779a7.075,7.075,0,0,0-5.551,2.255q-2.021,2.255-2.023,6.512v12.56H74.9V12.772q0-7.78-6.9-7.78a7.016,7.016,0,0,0-5.5,2.257Q60.484,9.5,60.484,13.76V26.32Zm109.6-.02V.365h3.53L169,6.692Q172.108,0,180.054,0h.881l-.013,4.98h-2.074q-4.42,0-6.589,2.7a11.226,11.226,0,0,0-2.178,7.21V26.3Z" transform="translate(5829 3252.159)" fill="#1d1d1d"></path></g></g></svg>