<?xml version="1.0" encoding="UTF-8"?> <svg xmlns="http://www.w3.org/2000/svg" xmlns:xlink="http://www.w3.org/1999/xlink" width="80" height="80" viewBox="0 0 80 80"><defs><clipPath id="a"><rect width="80" height="80" fill="#1d1d1d"></rect></clipPath></defs><g clip-path="url(#a)"><path d="M-1271-737h-72v-72h72v72Zm-48.244-6.046h0a2.026,2.026,0,0,0,.664,1.27,3.3,3.3,0,0,0,2.237.6,2.921,2.921,0,0,0,2.478-.846,3.1,3.1,0,0,0,.545-1.633,1.509,1.509,0,0,0-.06-.483v-4.595h-1.994v.423a2.217,2.217,0,0,0-1.512-.544,2.443,2.443,0,0,0-1.858.8,2.443,2.443,0,0,0-.622,1.923,2.872,2.872,0,0,0,.62,1.92,2.3,2.3,0,0,0,1.8.741,2.675,2.675,0,0,0,1.633-.544v.3c0,.784-.346,1.148-1.089,1.148a.724.724,0,0,1-.786-.483Zm38.025-5.743c-1.505,0-2.478,1.115-2.478,2.841a3,3,0,0,0,.619,1.9,2.24,2.24,0,0,0,1.8.816,2.286,2.286,0,0,0,1.633-.6v.483h2v-5.26h-2v.483a1.983,1.983,0,0,0-1.571-.66Zm-24.061,0c-1.506,0-2.479,1.115-2.479,2.841a3,3,0,0,0,.62,1.9,2.242,2.242,0,0,0,1.8.816,2.282,2.282,0,0,0,1.632-.6v.483h2v-5.26h-2v.483a1.98,1.98,0,0,0-1.569-.66Zm-18.62,0c-1.506,0-2.479,1.115-2.479,2.841a3,3,0,0,0,.62,1.9,2.241,2.241,0,0,0,1.8.816,2.286,2.286,0,0,0,1.633-.6v.483h1.994v-5.26h-1.994v.483a1.983,1.983,0,0,0-1.574-.66Zm36.7-.121a2.724,2.724,0,0,0-2.168.722,2.724,2.724,0,0,0-.855,2.119,2.612,2.612,0,0,0,.8,2.071,2.612,2.612,0,0,0,2.1.71,2.787,2.787,0,0,0,2.963-1.814h-2.056a.756.756,0,0,1-.786.484,1.023,1.023,0,0,1-.747-.256,1.023,1.023,0,0,1-.342-.711v-.06h3.991a4.453,4.453,0,0,0-.182-1.452,2.6,2.6,0,0,0-2.718-1.81Zm-9.491-2.659v8.221h1.995v-2.721c0-.469.136-1.028.786-1.028.489,0,.726.316.726.968v2.66h1.994v-2.781a4.079,4.079,0,0,0-.3-1.935,1.6,1.6,0,0,0-1.452-.664,2.263,2.263,0,0,0-1.753.786v-3.506Zm-36.757,4.413c.535,0,.725.531.725,1.028v2.781h2v-2.6a1.219,1.219,0,0,1,.363-1.028.647.647,0,0,1,.423-.182c.481,0,.725.346.725,1.028v2.721h1.934v-3.446a3.488,3.488,0,0,0-.121-.846,1.56,1.56,0,0,0-1.693-1.148,2.186,2.186,0,0,0-1.571.664.593.593,0,0,1-.121.152.588.588,0,0,0-.121.15,1.576,1.576,0,0,0-1.633-.967,2.288,2.288,0,0,0-1.39.483,1.605,1.605,0,0,0-.152.182,1.635,1.635,0,0,1-.151.181v-.665h-1.935v5.26h1.935V-746c0-.778.254-1.154.783-1.154Zm33.189-.181v3.929h1.935v-3.929h1.028v-1.33h-1.028v-1.391h-1.935v1.391h-.725v1.33Zm-11.909-1.391v5.26h1.994v-2.358c0-.836.354-1.209,1.148-1.209a2.775,2.775,0,0,1,.528.064,2.361,2.361,0,0,0,.439.056v-1.814a2.269,2.269,0,0,1-.3-.03,2.3,2.3,0,0,0-.3-.03,2.412,2.412,0,0,0-1.632.725v-.665Zm-18.183-53.6-6.093,1.079-.061,26.865,6.53,3.956,18.021-6.212v-20.353l-18.4-5.335Zm49.74,57.412a1.02,1.02,0,0,1-.791-.295,1.02,1.02,0,0,1-.3-.789,1.077,1.077,0,0,1,.313-.836,1.077,1.077,0,0,1,.836-.313,1.046,1.046,0,0,1,.8.31.987.987,0,0,1,.228.778,1.06,1.06,0,0,1-.288.815,1.061,1.061,0,0,1-.8.329Zm-24,0a1.02,1.02,0,0,1-.791-.295,1.02,1.02,0,0,1-.3-.789,1.077,1.077,0,0,1,.313-.836,1.077,1.077,0,0,1,.835-.313,1.046,1.046,0,0,1,.8.31.988.988,0,0,1,.228.778,1.06,1.06,0,0,1-.288.815,1.06,1.06,0,0,1-.8.329Zm-18.62,0a1.02,1.02,0,0,1-.792-.3,1.02,1.02,0,0,1-.3-.792,1.077,1.077,0,0,1,.313-.836,1.077,1.077,0,0,1,.835-.313.973.973,0,0,1,.769.3.973.973,0,0,1,.259.785,1.06,1.06,0,0,1-.287.818,1.06,1.06,0,0,1-.8.33Zm6.953-.06a1.082,1.082,0,0,1-.755-.359,1.082,1.082,0,0,1-.273-.79,1.1,1.1,0,0,1,.3-.8,1.1,1.1,0,0,1,.788-.343c.649,0,1.026.4,1.088,1.148a1.046,1.046,0,0,1-.3.848,1.046,1.046,0,0,1-.848.3Zm29.985-1.753h-2a1.033,1.033,0,0,1,1.028-.726c.565,0,.909.258.967.725Zm-43.373-24.386h0V-792.27l3.077,1.211c0,3.83.061,12.978.061,13.017v.361l8.468-2.392-.06-15.029,5.616-1.335v19.406l-17.163,5.917Zm-.551-.1h0l-5.735-3.474.058-25.948,17.226,5.507.058,14.474-3.378-1.092v-8.087l-8.228-3.24v21.861Zm4.236-7.189h0c0-.205,0-.489-.005-.837s0-.74-.006-1.187l3.8-.806,2.906.939-6.7,1.892Zm-.015-2.586h0v-.529c-.011-1.979-.036-6.615-.038-9.321l3.5,1.378v7.738l-3.457.734Zm7.637-14.619-16.667-5.329,4.646-.823,17.073,4.951-5.052,1.2Z" transform="translate(1346.999 812.998)" fill="#1d1d1d"></path></g></svg>