<?xml version="1.0" encoding="UTF-8"?> <svg xmlns="http://www.w3.org/2000/svg" xmlns:xlink="http://www.w3.org/1999/xlink" width="89.9" height="80" viewBox="0 0 89.9 80"><defs><clipPath id="a"><rect width="89.9" height="80" fill="#1d1d1d"></rect></clipPath></defs><g clip-path="url(#a)"><path d="M3837.98,6416.681h-11.561v-2.168h10.053v-15.951a.109.109,0,0,1,.11-.11h3.23a.1.1,0,0,1,.094.052l7.812,13.019V6398.54a.1.1,0,0,1,.1-.1H3864.9a.118.118,0,0,1,.094.052l.173.3a.113.113,0,0,1,0,.116l-4.466,6.792h.162a4.862,4.862,0,0,1,2.1.431,4.39,4.39,0,0,1,1.471,1.109,4.583,4.583,0,0,1,.864,1.523,5.188,5.188,0,0,1,.283,1.666,6.484,6.484,0,0,1-.576,2.833,5.835,5.835,0,0,1-.883,1.339h4.445l4.823-7.284-5.723-8.609a.11.11,0,0,1,0-.11.1.1,0,0,1,.094-.06h3.639a.109.109,0,0,1,.1.047l3.873,6.209,4.037-6.21a.1.1,0,0,1,.089-.048h3.414a.109.109,0,0,1,.088.169l-5.906,8.607,4.969,7.29h8.545v-13.145h-5.419a.1.1,0,0,1-.1-.1v-2.713a.108.108,0,0,1,.1-.1h14.132a.108.108,0,0,1,.1.1v2.712a.1.1,0,0,1-.1.1h-5.445v15.192a.1.1,0,0,1-.031.08.106.106,0,0,1-.079.033h-14.146a.108.108,0,0,1-.089-.047l-4.267-6.739-4.325,6.739a.128.128,0,0,1-.094.047H3858.32a13.353,13.353,0,0,1-2.317-.2,11.731,11.731,0,0,1-2.212-.633.1.1,0,0,1-.069-.115,4.335,4.335,0,0,1,.293-1.11,10.8,10.8,0,0,1,.5-1.046.109.109,0,0,1,.135-.046,11.407,11.407,0,0,0,1.675.522,9.143,9.143,0,0,0,2,.2,7.72,7.72,0,0,0,1.774-.2,3.882,3.882,0,0,0,1.424-.638,3.16,3.16,0,0,0,.953-1.138,3.725,3.725,0,0,0,.351-1.7,2.588,2.588,0,0,0-.985-2.235,4.362,4.362,0,0,0-2.64-.733c-.33,0-.67.012-1.01.038a5.974,5.974,0,0,0-1,.164.115.115,0,0,1-.121-.051l-.2-.353a.113.113,0,0,1,0-.115l4.1-6.468h-10.136v15.674a.114.114,0,0,1-.11.108H3847.5a.1.1,0,0,1-.089-.052l-7.822-13.034v12.977a.11.11,0,0,1-.11.109h-1.5Zm58.024.084h12.215V6414.6H3896Zm-57.412-1.346a.4.4,0,0,0-.073.285c.016.073.031.146.042.22a.2.2,0,0,0,.084-.208c-.037-.152-.045-.271-.053-.294Zm-.079-1.466a.6.6,0,0,0-.66-.435.547.547,0,0,0-.115.34s-.1.5-.141.71c0,0-.01.409.241.566a.59.59,0,0,1,.293-.293,1.266,1.266,0,0,0,.44-.049c-.026-.152-.062-.368-.1-.592a.405.405,0,0,1,.043-.246Zm0-.011a.364.364,0,0,1,.089-.088,1.03,1.03,0,0,0,.22-.681l-.178.073h0a1.326,1.326,0,0,0-.13.7Zm.131-.7a.153.153,0,0,0-.047.009.092.092,0,0,0,.049,0Zm-.01-1.534c-.157-.215-.3-.4-.3-.4a3.16,3.16,0,0,1-.738.089c-.178,0-.141.335-.141.335a1.145,1.145,0,0,1,.382.025c.471.1.351.382.424.377.031,0,.361-.44.377-.429s0,.01.01.015a.019.019,0,0,0-.014-.01Zm37.321-4.651a.5.5,0,0,0,.01-.129s-.01-.394-.848-.284a.53.53,0,0,0-.376.179c-.036.016-.084.032-.126.051,0,0-.11.9.739.9a.755.755,0,0,0,.6-.717Zm-37.677-4.765a.6.6,0,0,0-.094,0,.873.873,0,0,0-.147.053s-.1.042.036.163a2.534,2.534,0,0,0,.414.318l.209.025c.058.006.11,0,.126-.062l-.089-.068a.537.537,0,0,0-.11-.292l-.262-.009s-.034-.052-.082-.12Zm.7-.691a.1.1,0,0,0,.042-.074.538.538,0,0,0-.178-.024.49.49,0,0,1,.138.1Zm-.366-1.692-.3.011s-.288.435-.272.545a.82.82,0,0,0,.125.271s.283.246.408.2.466-.162.429-.4a1.01,1.01,0,0,0-.388-.625Zm60.987-42.021-.173,26.934-9.4-.058.126-19.833-2.466-.015a23.091,23.091,0,0,1,.665,5.958c-.062,9.328-3.639,14.716-11.367,14.668a12.357,12.357,0,0,1-4.382-.7l-.058,10.459-9.414-.057.194-30.485-2.3-.016a22.931,22.931,0,0,1,.665,5.965c-.058,9.319-3.634,14.714-11.367,14.663a12.523,12.523,0,0,1-4.383-.7l-.068,10.458-9.4-.063.193-30.483-3.911-.026.047-7.1,12.31.078v.655a11.654,11.654,0,0,1,5.963-1.482,10.27,10.27,0,0,1,5.858,1.691l.005-.785,14.844.094v.655a11.594,11.594,0,0,1,5.958-1.482,10.285,10.285,0,0,1,5.864,1.693v-.786Zm-14.76,1.168,13.488.089-.157,24.409-6.88-.047.131-19.833-5.482-.031a19.124,19.124,0,0,1,1.142,7.226c-.058,9-3.383,13.454-10.094,13.412a11.2,11.2,0,0,1-5.639-1.361l-.073,11.107-6.88-.042.2-30.484-5.32-.032a19.224,19.224,0,0,1,1.147,7.228c-.058,9-3.388,13.456-10.1,13.414a11.238,11.238,0,0,1-5.639-1.361l-.074,11.106-6.874-.042.194-30.484-3.912-.021.026-4.577,9.786.063-.01,1.624c2.864-1.859,4.66-2.461,7.23-2.44a8.267,8.267,0,0,1,7.115,3.424l.017-2.514,12.315.079-.011,1.624c2.864-1.859,4.66-2.461,7.231-2.445a8.256,8.256,0,0,1,7.11,3.43Zm-13.377,5.865a6.082,6.082,0,0,1,4.372-1.8c3.079.021,4.4,2.42,4.367,7.908-.021,3.356-.54,5.844-1.388,7.112-.675.911-1.8,1.36-3.586,1.351a7.433,7.433,0,0,1-3.854-.941Zm-26.666-.173a6.1,6.1,0,0,1,4.377-1.8c3.074.021,4.4,2.419,4.367,7.907-.021,3.357-.545,5.845-1.387,7.112-.681.911-1.8,1.362-3.592,1.352a7.43,7.43,0,0,1-3.849-.943ZM3875.227,6378.227ZM3875.468,6378.227ZM3875.028,6378.227ZM3875.688,6378.227Zm.073,0h-.042Zm-.994,0h-.042ZM3875.793,6378.227ZM3874.7,6378.217Zm-.01,0h-.032Zm1.141,0h.032ZM3874.616,6378.217Zm-.016,0h-.02ZM3874.538,6378.217Zm-.021,0h-.015Zm-.063,0-.01-.006ZM3874.433,6378.211Zm1.686-.01-.026.006ZM3874.344,6378.207Zm-.052-.006h-.021Zm1.89,0h-.026ZM3874.265,6378.2ZM3876.218,6378.2Zm.021,0h-.015Zm-2.131,0h0a.413.413,0,0,1,.078.009ZM3876.3,6378.2Zm.073-.016h-.021Zm.057-.011-.02.006ZM3876.484,6378.174Zm.1-.026h-.016ZM3876.621,6378.148Zm.047-.016-.016.006ZM3848.577,6378.107Zm2.974-1.712-.01.026.01-.026a17.539,17.539,0,0,0,.728-5.5v-.745l-.026-.765-.026-.46-.016-.209c-.011-.1-.016-.2-.026-.3l-.068-.582-.094-.565-.063-.293c-.047-.194-.094-.377-.146-.544l-.147-.425-.157-.346-.11-.2a.132.132,0,0,1-.021-.038l-.01-.011-.01-.021-.011-.011a2.482,2.482,0,0,0-.393-.493l-.026-.021v-.011l-.026-.021v-.006l-.2-.162-.215-.131-.146-.068.036.016a2.227,2.227,0,0,0-.5-.162l-.4-.063-.293-.011a4.474,4.474,0,0,0-3.1,1.147l-.085,12.2c.058.026.115.052.173.073l-.047-.021.2.079-.042-.016.021.01h.021c.068.026.141.052.215.073l.047.016-.047-.016-.047-.015.2.063a5.905,5.905,0,0,0,.979.186h0a.079.079,0,0,0-.037,0l.267.021.063.006.414.016h.277c1.44,0,2.079-.346,2.424-.76a.088.088,0,0,1-.016.021.088.088,0,0,0-.016.021l.032-.042a.475.475,0,0,0,.068-.083,4.1,4.1,0,0,0,.278-.536.161.161,0,0,1-.021.042.215.215,0,0,1-.021.047l.042-.089c.04-.12.087-.23.129-.349Zm-3.167,1.707h-.006Zm28.43-.011-.031.011ZM3848.289,6378.1Zm-.089,0h-.037Zm-.094,0h-.052Zm25.384,0h.015l-.073-.021Zm-25.593-.011h-.068a.527.527,0,0,1,.1,0h0Zm28.944.006h-.01Zm.026-.011h-.016Zm-3.456,0h.016l-.063-.015ZM3876.882,6378.085Zm-29.122,0h-.026Zm29.159-.015h-.021Zm-3.581-.01h.01l-.057-.016Zm3.623-.006-.021.006Zm-3.7-.016.01.006-.057-.021Zm-.078-.021h.01l-.058-.016Zm3.9-.011h-.021Zm-3.969-.016h0l-.058-.016Zm-.079-.026h.011l-.063-.021Zm-.073-.026h0l-.073-.026ZM3877.271,6377.912Zm.031-.016h-.01Zm-30.614,0-.037-.01Zm-.089-.026.026.011-.036-.011Zm30.792-.021h-.011ZM3877.411,6377.828Zm.079-.058v.011Zm-31.274-.032.026.011-.036-.016ZM3877.537,6377.738Zm.052-.037h-.01ZM3877.605,6377.68ZM3877.647,6377.643Zm.021-.026v.006Zm.058-.058-.026.026Zm.026-.031-.021.021Zm.026-.037-.021.032a.174.174,0,0,1,.023-.062Zm.309-.577-.016.032.042-.089Zm-26.63-.262a.135.135,0,0,0,.021-.052.408.408,0,0,0,.021-.052Zm.283-.842c-.016.052-.031.109-.047.162s-.032.11-.047.163c.034-.133.065-.243.1-.352Zm26.64.261a.26.26,0,0,1-.015.058c.01-.052.026-.1.042-.157s.031-.11.042-.162c-.016.067-.037.136-.052.2v.01Zm.236-1.037h0l.021-.094Zm.261-2.1v.021l.006-.1Zm-26.635-.618a.573.573,0,0,1-.01.131.554.554,0,0,0,0,.13c.007-.117.012-.2.017-.289Zm.037-1.792v.068ZM3878.945,6370.456ZM3852.273,6369.9Zm-.016-.329v.036Zm26.656-.1Zm0-.058v-.048Zm-.01-.22Zm-26.656.021v.052ZM3852.232,6368.946ZM3878.875,6368.892Zm-.021-.247.01.136a1.118,1.118,0,0,0-.007-.159ZM3878.843,6368.529Zm-.047-.376h0v-.026ZM3852.139,6368.027Zm26.635-.052v-.01Zm-26.651-.058v.026Zm26.63-.094.01.063Zm-26.666-.162v.026Zm-.084-.481v.021ZM3851.788,6366.347Zm26.593-.031.01.021-.026-.062Zm-26.614-.031.015.042Zm26.556-.121.016.031ZM3878.323,6366.144Zm-26.64-.1.011.026Zm-.021-.058v.021Zm26.572-.042.016.042Zm-26.614-.052.01.016Zm-.026-.058.01.021Zm-.006-.016h.006Zm-.047-.094.016.021Zm-.026-.059.016.027Zm-.026-.052.016.032Zm-.089-.162.026.047A.1.1,0,0,1,3851.4,6365.451Zm-.058-.094a2.288,2.288,0,0,0-.167-.23,2.345,2.345,0,0,0-.215-.241,2.652,2.652,0,0,1,.384.471l.016.031.015.016v.011l-.016-.021-.016-.027Zm26.363-.215.031.026Zm-.1-.1.031.031h0a.309.309,0,0,0-.031-.025Zm-.314-.246.021.016.016.01c.042.026.083.057.125.089s.084.068.126.1a.06.06,0,0,0,.026.026.058.058,0,0,1-.025-.026,2.518,2.518,0,0,0-.279-.213Zm-26.363.068.031.021h0a.126.126,0,0,0-.021-.053Zm-.031-.031.026.026v-.006c-.01,0-.016-.016-.026-.021Zm-.031-.031.026.025Zm-.037-.027.026.021Zm-.1-.078.026.016Zm-.068-.053.026.021Zm-.036-.021.026.021Zm-.031-.021.026.016Zm-.037-.021.026.017Zm-.037-.02.026.015Zm-.073-.042.031.016Zm-.037-.016.031.016Zm-.042-.021.037.016Zm26.1,0h-.016Zm-.539-.057h.037a.092.092,0,0,0-.031-.035ZM3875.876,6364.424Zm-26.206-.137h.031l-.052-.01Zm-.058-.01h.021ZM3849.539,6364.277Zm-.079-.011h.016Zm41.06-19.455,8.932.058-.057,8.939-8.933-.057Zm-15.278,33.463h0l.508-.016.414-.037.414-.073.346-.1.246-.1.266-.157.168-.136.178-.194.026-.031a4.1,4.1,0,0,0,.278-.541,7.362,7.362,0,0,0,.292-.842l.007-.026v-.036a9.655,9.655,0,0,0,.22-.976q.133-.713.22-1.585a.344.344,0,0,1-.01.1.7.7,0,0,0-.01.1l.021-.193c.016-.168.031-.335.042-.513.042-.565.063-1.184.068-1.843v-.634l-.016-.581-.021-.461-.032-.519-.047-.477-.058-.445-.068-.4-.031-.168c-.016-.068-.026-.131-.042-.2l.021.084-.078-.33-.058-.2-.057-.194-.073-.2-.126-.314-.084-.173.026.047c-.016-.031-.037-.068-.052-.1a.161.161,0,0,1-.016-.026.126.126,0,0,0,.014.026l.006.011-.121-.209a2.442,2.442,0,0,0-.157-.229c.021.03.047.057.068.088l-.089-.122.021.032c-.026-.037-.052-.068-.079-.1l.032.036-.157-.183-.021-.011.016.011-.031-.032-.031-.026a.234.234,0,0,0-.031-.037q-.119-.1-.246-.187l-.021-.016-.016-.011a2.067,2.067,0,0,0-.267-.146h0l.026.016-.026-.016a2.294,2.294,0,0,0-.45-.151l-.2-.038a2.536,2.536,0,0,0-.408-.037h-.131a4.5,4.5,0,0,0-3.11,1.146l-.079,12.223c.084.037.162.068.246.1l.32.11.293.083c.194.047.393.083.6.115l.345.037.335.021.456.011Z" transform="translate(-3822.419 -6340.769)" fill="#1d1d1d" fill-rule="evenodd"></path></g></svg>