<?xml version="1.0" encoding="UTF-8"?> <svg xmlns="http://www.w3.org/2000/svg" xmlns:xlink="http://www.w3.org/1999/xlink" width="89.802" height="79.913" viewBox="0 0 89.802 79.913"><defs><clipPath id="a"><rect width="89.802" height="79.913" fill="#1d1d1d"></rect></clipPath><clipPath id="b"><rect width="66.776" height="50.621" fill="#1d1d1d"></rect></clipPath></defs><g clip-path="url(#a)"><g transform="translate(10.149 -2.835)"><path d="M70.671,989.082l.342-.137a5.127,5.127,0,0,1,2.119-.456,1.573,1.573,0,0,1,1.6.775,7.261,7.261,0,0,1,.364,2.8v5.856h2.461v-5.9a12.76,12.76,0,0,0-.182-2.916l.388-.159a6.38,6.38,0,0,1,2.21-.456,1.558,1.558,0,0,1,1.572.775,6.579,6.579,0,0,1,.364,2.62v6.038h2.461v-6.106a8.013,8.013,0,0,0-.843-4.284,3.22,3.22,0,0,0-2.894-1.253A8.575,8.575,0,0,0,76.5,987.4a3.508,3.508,0,0,0-2.894-1.116,5.92,5.92,0,0,0-2.962.957v-.706H68.188v11.392h2.484Z" transform="translate(-63.848 -919.327)" fill="#1d1d1d"></path><path d="M397.028,996.009a2.941,2.941,0,0,1-2.21-.661,3.211,3.211,0,0,1-.615-2.073h7.063l.159-1.777c0-3.486-1.6-5.218-4.785-5.218-3.3,0-4.944,2.028-4.944,6.061a7.073,7.073,0,0,0,1.116,4.443,4.315,4.315,0,0,0,3.623,1.39,24.126,24.126,0,0,0,4.6-.524l-.046-1.846-.638.069C399.215,995.963,398.1,996.009,397.028,996.009Zm-2.848-4.648a3.838,3.838,0,0,1,.615-2.324,2.232,2.232,0,0,1,1.846-.706,2.278,2.278,0,0,1,1.823.661,4.088,4.088,0,0,1,.524,2.37Z" transform="translate(-367.511 -919.327)" fill="#1d1d1d"></path><path d="M609.254,913.109v4.785a16.713,16.713,0,0,0-2.6-.3,4.29,4.29,0,0,0-3.577,1.436,7.3,7.3,0,0,0-1.162,4.6c0,2.119.342,3.623,1.048,4.511a3.867,3.867,0,0,0,3.258,1.344,6.735,6.735,0,0,0,3.053-.843v.592h2.461V913.109Zm-2.6,14.172a1.843,1.843,0,0,1-1.686-.82,5.455,5.455,0,0,1-.547-2.893c0-2.552.775-3.828,2.3-3.828a14.664,14.664,0,0,1,2.529.228v6.744l-.387.159a6.039,6.039,0,0,1-2.207.41Z" transform="translate(-564.836 -850.645)" fill="#1d1d1d"></path><path d="M834.676,932.029V920.637h-2.483v11.392Zm0-13.329v-2.62h-2.483v2.62Z" transform="translate(-780.985 -853.434)" fill="#1d1d1d"></path><path d="M939.241,987.169a4.238,4.238,0,0,0-3.008-.889,20.385,20.385,0,0,0-4.58.592l.091,1.754.729-.045c1.458-.114,2.666-.182,3.646-.182a1.678,1.678,0,0,1,1.185.365,1.741,1.741,0,0,1,.387,1.276v.82l-2.939.25a4.982,4.982,0,0,0-2.825.934,3.1,3.1,0,0,0-.934,2.506c0,2.415,1.139,3.623,3.395,3.623a8.532,8.532,0,0,0,3.668-.843,4.751,4.751,0,0,0,3.03.843l.068-1.891a1.208,1.208,0,0,1-.729-.319,1.073,1.073,0,0,1-.273-.729v-5.2a3.915,3.915,0,0,0-.911-2.87Zm-1.55,5.446v3.03l-.41.137a8.51,8.51,0,0,1-2.415.365c-.934,0-1.39-.524-1.39-1.572a1.533,1.533,0,0,1,1.572-1.709Z" transform="translate(-873.725 -919.327)" fill="#1d1d1d"></path><g transform="translate(0.167 6.871)" clip-path="url(#b)"><path d="M66.787,206.485V233.4h-9.4V213.58H54.922a22.887,22.887,0,0,1,.7,5.954c0,9.318-3.54,14.731-11.268,14.731a12.514,12.514,0,0,1-4.385-.67l.015,10.452H30.568V213.584h-2.3a22.908,22.908,0,0,1,.7,5.954c0,9.318-3.54,14.731-11.27,14.731a12.5,12.5,0,0,1-4.384-.67V244.05h-9.4V213.584H0v-7.1H12.308v.652a11.608,11.608,0,0,1,5.949-1.516,10.241,10.241,0,0,1,5.869,1.653v-.789H38.963v.652a11.613,11.613,0,0,1,5.949-1.516,10.242,10.242,0,0,1,5.869,1.653v-.789Zm-14.738,1.263H65.53v24.394H58.653v-19.82h-5.48a19.149,19.149,0,0,1,1.191,7.217c0,9-3.3,13.468-10.006,13.468a11.2,11.2,0,0,1-5.646-1.322v11.1H31.836V212.321H26.518a19.122,19.122,0,0,1,1.192,7.217c0,9-3.3,13.468-10.007,13.468a11.207,11.207,0,0,1-5.646-1.322v11.1H5.181V212.321H1.268v-4.574H11.05v1.626c2.851-1.88,4.64-2.49,7.212-2.49a8.255,8.255,0,0,1,7.132,3.378v-2.514H37.706v1.626c2.852-1.88,4.64-2.49,7.212-2.49a8.254,8.254,0,0,1,7.131,3.378Zm-8.978,5.379c1.821,0,3.152,1.093,3.152,6.614,0,3.257-.493,5.4-1.1,6.369-.335.456-.971.856-2.559.857h0c1.589,0,2.226-.4,2.561-.857.6-.967,1.1-3.112,1.1-6.369C46.225,214.216,44.893,213.127,43.071,213.127Zm-26.655,0c1.82,0,3.15,1.093,3.15,6.614,0,3.257-.492,5.4-1.1,6.369-.335.456-.971.856-2.557.857h0c1.588,0,2.225-.4,2.56-.857.6-.967,1.1-3.112,1.1-6.369,0-5.525-1.332-6.614-3.154-6.614Z" transform="translate(-0.01 -193.429)" fill="#1d1d1d" fill-rule="evenodd"></path></g><path d="M632.249,322.034a6.107,6.107,0,0,0,2.595.457c1.589,0,2.226-.4,2.561-.857.6-.967,1.1-3.112,1.1-6.369,0-5.525-1.332-6.614-3.155-6.614a4.465,4.465,0,0,0-3.1,1.167Zm-1.261-12.816a6.084,6.084,0,0,1,4.36-1.83c3.075,0,4.416,2.389,4.416,7.877,0,3.355-.5,5.845-1.341,7.115-.67.915-1.788,1.373-3.578,1.373a7.424,7.424,0,0,1-3.856-.916Z" transform="translate(-592.124 -282.082)" fill="#1d1d1d" fill-rule="evenodd"></path><path d="M197.725,322.034a6.1,6.1,0,0,0,2.6.457c1.588,0,2.225-.4,2.56-.857.606-.967,1.1-3.112,1.1-6.369,0-5.525-1.332-6.614-3.154-6.614a4.465,4.465,0,0,0-3.1,1.167Zm-1.262-12.816a6.088,6.088,0,0,1,4.361-1.83c3.075,0,4.416,2.389,4.416,7.877,0,3.355-.5,5.845-1.342,7.115-.671.915-1.789,1.373-3.578,1.373a7.43,7.43,0,0,1-3.858-.916Z" transform="translate(-184.254 -282.082)" fill="#1d1d1d" fill-rule="evenodd"></path><rect width="8.93" height="8.931" transform="translate(57.778 6.871)" fill="#1d1d1d"></rect></g></g></svg>