<?xml version="1.0" encoding="UTF-8"?> <svg xmlns="http://www.w3.org/2000/svg" xmlns:xlink="http://www.w3.org/1999/xlink" width="178" height="60.8" viewBox="0 0 178 60.8"><defs><clipPath id="a"><rect width="178" height="60.8"></rect></clipPath></defs><g clip-path="url(#a)"><g transform="translate(-414.998 -396.001)"><path d="M0-4.991,7.2-.923l.042-.023V-9.058L7.2-9.081,0-5.014Z" transform="translate(523.471 409.082)" fill="rgba(29,29,29,0.5)"></path><path d="M0-4.946V-4.9L7.182-.847l.064-.035V-8.966L7.182-9Z" transform="translate(530.716 429.4)" fill="rgba(29,29,29,0.6)"></path><path d="M0-9.9l7.182-4.054L0-18.009Z" transform="translate(530.716 418.033)" fill="rgba(29,29,29,0.5)"></path><path d="M0-4.963v.023L7.2-.872,7.245-.9V-9.007L7.2-9.03Z" transform="translate(523.471 417.19)" fill="rgba(29,29,29,0.8)"></path><path d="M0-9.927l7.2-4.067L0-18.063Z" transform="translate(523.471 438.472)" fill="rgba(29,29,29,0.65)"></path><path d="M-8.813,0l-7.224,4.08,7.224,4.08.02-.012V.011Z" transform="translate(532.264 420.398)" fill="rgba(29,29,29,0.65)"></path><path d="M-8.84-.03l-.042-.024-7.2,4.069v.023l7.2,4.067.042-.023Z" transform="translate(539.556 416.372)" fill="rgba(29,29,29,0.95)"></path><path d="M-8.838-.013l-.02-.011-7.224,4.078,7.224,4.08.02-.011Z" transform="translate(532.309 404.105)" fill="rgba(29,29,29,0.6)"></path><path d="M-8.838-.013l-.02-.011-7.224,4.078,7.224,4.08.02-.011Z" transform="translate(532.309 412.264)" fill="rgba(29,29,29,0.85)"></path><path d="M0-9.9l7.182-4.054L0-18.009Z" transform="translate(530.716 442.509)" fill="rgba(29,29,29,0.5)"></path><path d="M-8.738-4.933-15.9-8.976V-.89Z" transform="translate(553.861 429.41)" fill="rgba(29,29,29,0.6)"></path><path d="M-8.738-4.933-15.9-8.976V-.89Z" transform="translate(553.861 421.251)" fill="rgba(29,29,29,0.8)"></path><path d="M-8.762-4.946-15.944-9V-.892Z" transform="translate(546.661 417.185)" fill="rgba(29,29,29,0.9)"></path><path d="M-8.762-4.946-15.944-9V-.892Z" transform="translate(546.661 425.344)" fill="#1d1d1d"></path><path d="M0-9.927l7.2-4.067L0-18.063Z" transform="translate(523.471 430.313)" fill="rgba(29,29,29,0.85)"></path><path d="M0,0V8.136L7.2,4.067Z" transform="translate(523.471 404.092)" fill="rgba(29,29,29,0.6)"></path><path d="M-8.813-4.977l-7.224-4.08h0V-.9h0Z" transform="translate(532.264 417.217)" fill="rgba(29,29,29,0.75)"></path><path d="M-8.84-.03l-.042-.024-7.2,4.069v.023l7.2,4.067.042-.023Z" transform="translate(539.556 424.53)" fill="rgba(29,29,29,0.5)"></path><path d="M-8.813-4.977l-7.224-4.08h0V-.9h0Z" transform="translate(532.264 425.375)" fill="rgba(29,29,29,0.7)"></path><path d="M-8.738,0-15.9,4.043v.072l7.162,4.044.085-.049V.049Z" transform="translate(553.861 408.16)" fill="rgba(29,29,29,0.75)"></path><path d="M0-4.927v.072L7.162-.812l.085-.045V-8.92l-.085-.045Z" transform="translate(537.962 425.289)" fill="rgba(29,29,29,0.5)"></path><path d="M0-9.868l7.162-4.043L0-17.955Z" transform="translate(537.962 422.071)" fill="rgba(29,29,29,0.65)"></path><path d="M-8.813-4.977l-7.224-4.08h0V-.9h0Z" transform="translate(532.264 409.058)" fill="rgba(29,29,29,0.5)"></path><path d="M0-4.946V-4.9L7.182-.847l.064-.035V-8.966L7.182-9Z" transform="translate(530.716 421.241)" fill="rgba(29,29,29,0.8)"></path><path d="M-8.762,0l-7.182,4.054V4.1l7.182,4.06.064-.036V.035Z" transform="translate(546.661 404.081)" fill="rgba(29,29,29,0.65)"></path><path d="M0-4.927v.072L7.162-.812l.085-.045V-8.92l-.085-.045Z" transform="translate(537.962 408.972)" fill="rgba(29,29,29,0.5)"></path><path d="M111.076,16.164a1.827,1.827,0,0,1-1.293-2.547,1.775,1.775,0,1,1,1.863,2.547Zm-21.593,0a5.637,5.637,0,0,1-4.6-2.7,7.454,7.454,0,0,1-.3-5.929,6.22,6.22,0,0,1,3.648-3.648,7.24,7.24,0,0,1,5.93.609c.051.963.214,1.892.228,2.889H93.1a2.748,2.748,0,0,0-3.119-1.863c-3.537.4-3.48,7.943,0,8.4a4.116,4.116,0,0,0,3.5-1.293c.323.439.766.755,1.065,1.216a6.115,6.115,0,0,1-3.954,2.319Zm-11.29,0a7.546,7.546,0,0,1-2.812-.837c-.135-.94-.4-1.958-.533-2.774h1.559A2.743,2.743,0,0,0,79.3,14.188a1.558,1.558,0,0,0,1.178-2.281,4.193,4.193,0,0,0-1.863-.988c-1.973-.76-4.53-1.766-3.5-4.676.914-2.57,5.08-3.6,7.908-1.976.18.895.391,1.763.57,2.661h-1.56A2.5,2.5,0,0,0,79.067,5.52a1.428,1.428,0,0,0-.95,1.978,2.713,2.713,0,0,0,1.407.873c1.735.66,3.423,1.123,4.03,2.889a3.646,3.646,0,0,1-.76,3.535,5.129,5.129,0,0,1-3.27,1.368Zm-63.559,0a5.449,5.449,0,0,1-4.561-2.736,7.532,7.532,0,0,1-.3-5.969A6.126,6.126,0,0,1,13.46,3.886c1.656-.586,4.436-.509,5.893.647,0,1.026.18,1.872.228,2.851h-1.33A2.7,2.7,0,0,0,15.21,5.521c-3.672.355-3.583,8.079.075,8.4a3.992,3.992,0,0,0,3.345-1.293c.305.455.8.721,1.065,1.216a6,6,0,0,1-3.954,2.319Zm-11.29,0A6.638,6.638,0,0,1,.532,15.29,21.776,21.776,0,0,0,0,12.743v-.19H1.559a2.823,2.823,0,0,0,2.889,1.635,1.554,1.554,0,0,0,1.369-1.864c-.135-.692-1.06-1.048-1.787-1.331C2.061,10.227-.736,9.388.228,6.354A4.189,4.189,0,0,1,3.384,3.7a6.156,6.156,0,0,1,4.827.645c.146.894.383,1.694.532,2.585H7.224A2.788,2.788,0,0,0,5.7,5.558c-1.382-.377-2.915.329-2.508,1.749a1.381,1.381,0,0,0,.57.647c.946.578,2.134.769,3.079,1.292a3.457,3.457,0,0,1,1.976,2.432,3.581,3.581,0,0,1-.988,3.232,5.19,5.19,0,0,1-3.153,1.254ZM44.4,15.024a14.536,14.536,0,0,1-.5-1.749c-.464-1.593-1.067-3.689-1.482-5.17-.934,2.587-1.792,5.252-2.693,7.868a4.013,4.013,0,0,1-2.4-.381,7.628,7.628,0,0,1-1.064-2.546C35.5,10.908,34.629,8.677,33.9,6.431a2.745,2.745,0,0,0-.57-1.216c-.411-.328-1.324-.389-1.6.076a6.237,6.237,0,0,0-.191,2.167c-.054,1.569-.038,2.936-.038,4.676,0,.689-.108,1.84.152,2.167.176.221.556.159.873.3a8.062,8.062,0,0,1-.038,1.254c-.556-.009-1.126,0-1.7,0-.938.008-1.876.017-2.751-.038a14.6,14.6,0,0,0,.532-5.208c-.877-.055-1.817-.045-2.756-.038-.582,0-1.163.01-1.73,0a17.032,17.032,0,0,0-.038,1.94c0,1.136-.164,2.133.913,2.09a8.2,8.2,0,0,1-.039,1.254c-.541-.009-1.1,0-1.652,0-.914.008-1.831.017-2.682-.038a29.809,29.809,0,0,0,.532-7.3,10.622,10.622,0,0,0-.189-3.232,4.656,4.656,0,0,0-1.1-.228,8.22,8.22,0,0,1,.036-1.251H24.58c.038.35-.2.547-.3.875-.35,1.149-.1,2.654-.228,4.028.887.055,1.837.045,2.787.039.586,0,1.168-.01,1.737,0-.2-.913.3-2.651-.077-3.345-.168-.309-.49-.225-.836-.343V3.811H37.1c0,.647-.259,1.088-.267,1.712a12.048,12.048,0,0,0,.875,3.536c.348,1.141.759,2.23,1.029,3.342.951-2.849,1.924-5.68,2.813-8.591.2.005.415,0,.626,0,.779-.017,1.541-.034,1.884.46a7.543,7.543,0,0,1,.608,2.014C45.2,8.29,45.8,10.538,46.3,12.4c.745-1.793,1.824-3.942,2.623-5.93a3.18,3.18,0,0,0,.3-.913c-.05-.493-.79-.486-1.14-.57V3.811h4.98c1.249,2.9,2.423,6.3,3.762,9.351.315.717.468,1.4,1.369,1.445v1.254H54.056a4.358,4.358,0,0,0-.418-2.965H49.682a10.986,10.986,0,0,1,.684-1.787h2.548c-.525-1.539-1.168-2.963-1.672-4.522-1.39,3.044-2.63,6.239-3.916,9.389-.236.01-.464.017-.681.017-1.068,0-1.878-.172-2.244-.969Zm17.361.845c-.978-.029-1.971-.059-2.916-.009a18.743,18.743,0,0,0,.381-2.471c.107-1.726.075-3.588.075-5.588,0-.788.15-2.15-.3-2.509-.293-.231-.817-.111-1.1-.225V3.924c0-.054-.005-.108.038-.115a31.208,31.208,0,0,0,3.231,0c2.889-.1,5.833-.191,6.806,1.6a3,3,0,0,1-1.635,4.22,3.1,3.1,0,0,1,2.129,2.508c.141,2.252-1.457,3.558-3.612,3.725-.426.033-.873.045-1.333.045-.569,0-1.159-.019-1.756-.037Zm.354-5.216v1.712c0,.5-.112,1.385.113,1.635.339.373,2.081.18,2.432,0,1.007-.513.946-2.667.076-3.193a3.1,3.1,0,0,0-1.715-.263c-.275.006-.566.012-.87,0-.042.006-.036.059-.036.114Zm.075-5.132a27.74,27.74,0,0,0-.075,3.269c1.888.192,3.322-.3,3.193-1.9-.086-1.081-1.123-1.417-2.294-1.417a7.474,7.474,0,0,0-.822.049Zm79.718,10.3c.027-4.016.079-8.092-.039-12.05-.093-.005-.008-.127.039-.115.5,0,1-.006,1.494-.012,2.458-.034,4.816-.067,6.336.887a5.523,5.523,0,0,1,2.548,4.827,6.572,6.572,0,0,1-2.851,5.626,8.007,8.007,0,0,1-4.375.9c-.991,0-2.049-.047-3.153-.062Zm3.643-2.509a4.47,4.47,0,0,0,2.4-.38c1.111-.726,1.327-2.4,1.179-3.992-.191-2.027-1.685-3.056-4.144-2.774v7.146Zm-50.06,2.51c.586-2.02.532-5.029.532-7.982,0-.749.164-2.293-.265-2.585-.321-.217-.8-.049-1.027-.19a8.219,8.219,0,0,1,.04-1.253h4.714c.02.36-.2.577-.3.913a18.2,18.2,0,0,0-.19,3.991c.871.055,1.806.045,2.74.039.574,0,1.148-.01,1.708,0-.155-1.171.681-3.863-.875-3.688V3.811h4.369a13.127,13.127,0,0,0-.456,2.319c-.077,1.7-.038,3.562-.038,5.512,0,.729-.2,2.248.115,2.661.147.195.66.207.875.3v1.254h-4.486a14.7,14.7,0,0,0,.532-5.246c-.877-.054-1.816-.045-2.755-.038-.582,0-1.163.01-1.73,0v1.94c0,.65-.13,1.524.115,1.824.184.228.476.142.76.266V15.86c-.546-.009-1.106,0-1.667,0-.334,0-.668.006-1,.006C96.614,15.866,96.039,15.857,95.491,15.822Zm70.4-2.356c-.476-.009-.965,0-1.454,0-.8.008-1.607.016-2.348-.038a23.691,23.691,0,0,1-.76,2.432,18.578,18.578,0,0,0-1.861-.036c-.423.005-.83.01-1.181,0,.987-3.059,1.994-6.135,3-9.162.339-1.016.637-2.034,1.064-3,.667.054,1.457.045,2.207.037.488-.006.958-.011,1.367,0,1.343,4.042,2.643,8.127,4.067,12.089v.038c-.371.011-.8.006-1.241,0-.676-.008-1.387-.016-1.99.036q-.449-1.182-.868-2.4Zm-3.308-2.129h2.7c-.474-1.528-.842-3.163-1.331-4.676-.444,1.572-.884,3.147-1.368,4.676Zm-8.591,4.523c-.124-3.943.067-8.2-.113-12.089a.1.1,0,0,1,.075-.114c.59.055,1.306.045,1.979.037.436-.006.856-.011,1.216,0-.054,4.044-.074,8.108-.076,12.164a26.536,26.536,0,0,0-3.078,0Zm-19.01-.036c-1.131.006-2.248.014-3.3,0,.108-3.93.108-8.122,0-12.051a.1.1,0,0,1,.075-.114c2.619.065,5.479.059,8.1,0,.087.773.014,1.712.038,2.548-1.06-.051-2.179-.045-3.3-.039-.6,0-1.2.006-1.8,0v2.2c.506-.006,1.021,0,1.536,0,.951.006,1.9.011,2.8-.038.09.721.014,1.608.038,2.4H134.8c-.011.733.008,1.766,0,2.623h1.009c1.338,0,2.676,0,3.971-.038v2.546c-1.543-.056-3.184-.046-4.8-.037Zm-8.018.036c-.039-2.649.026-5.524,0-8.288-.876,2.9-1.985,5.567-3.041,8.288a15.937,15.937,0,0,0-2.357,0c-1.1-2.646-2-5.5-3-8.248-.007,2.567,0,5.645,0,8.21-.28.011-.615.006-.966,0a14,14,0,0,0-1.582.036c-.058-3.908.069-8.127-.038-12.089a.1.1,0,0,1,.075-.114c1.171.064,2.592.061,3.764,0,1.18,2.748,2.067,5.788,3.153,8.629,1-2.935,2.009-5.872,3.192-8.629.721.055,1.567.045,2.371.037.522-.006,1.027-.011,1.469,0-.09,3.967-.009,8.26-.039,12.164a25.847,25.847,0,0,0-3,0Zm-57.4,0c.119-.766.332-1.508.417-2.395.155-1.61.077-3.489.077-5.472,0-.714.192-2.3-.152-2.662-.2-.217-.8-.176-1.026-.266V3.923a.1.1,0,0,1,.076-.114h4.561c-.057.569-.383,1.036-.456,1.712-.139,1.3-.075,2.924-.075,4.486a23.338,23.338,0,0,0,.152,4.369c.223.156.625.135.911.228v1.254ZM52.459,2.631a1.388,1.388,0,0,1-.76-1.482A1.261,1.261,0,0,1,52.878.008a1.37,1.37,0,0,1,1.635.913,1.477,1.477,0,0,1-1.392,1.867,1.526,1.526,0,0,1-.662-.156ZM47.214,1.415A1.281,1.281,0,0,1,48.43.008a1.351,1.351,0,0,1,1.635,1.141A1.411,1.411,0,0,1,49,2.746a1.847,1.847,0,0,1-.33.03,1.363,1.363,0,0,1-1.456-1.361Z" transform="translate(418.998 436.61)" fill="#1d1d1d"></path></g></g></svg>