<?xml version="1.0" encoding="UTF-8"?> <svg xmlns="http://www.w3.org/2000/svg" xmlns:xlink="http://www.w3.org/1999/xlink" width="194.2" height="48" viewBox="0 0 194.2 48"><defs><clipPath id="a"><rect width="194.2" height="48" fill="#1d1d1d"></rect></clipPath></defs><g clip-path="url(#a)"><g transform="translate(-4950.269 -3318.832)"><path d="M0,17.743a.326.326,0,0,1,.327-.327H5.453a.386.386,0,0,1,.363.327c.364,2.836,1.636,4.691,5.817,4.691,3.308,0,5.126-.982,5.126-3.381,0-5.745-16.252-1.2-16.252-11.308C.507,2.982,4.217,0,10.724,0c5.961,0,10.069,2.291,10.834,7.745a.3.3,0,0,1-.291.327H16.1a.386.386,0,0,1-.363-.327c-.291-2.291-2.145-3.563-5.235-3.563C7.889,4.182,6,5.091,6,7.2c0,5.417,16.323,1.018,16.323,11.09,0,5.381-4.145,8.29-10.8,8.29C4.835,26.579.254,23.779,0,17.743Zm132.776-1.055c0-5.963,3.563-9.891,9.67-9.891,4.8,0,7.925,2.727,8.361,6.8a.278.278,0,0,1-.291.327h-4.4a.386.386,0,0,1-.363-.327c-.436-2.109-1.745-3.127-3.308-3.127-2.763.037-4.072,2.036-4.072,6.181,0,4.29,1.344,6.145,4.072,6.181,1.854.036,3.235-1.273,3.453-3.709a.387.387,0,0,1,.364-.327h4.508a.278.278,0,0,1,.291.327c-.4,4.254-3.817,7.344-8.723,7.344C136.34,26.47,132.776,22.652,132.776,16.688ZM122.67,20.5l.036-9.38H120.6a.326.326,0,0,1-.327-.327V7.6a.326.326,0,0,1,.327-.327h2.108l-.036-4.362A.326.326,0,0,1,123,2.582h4.835a.326.326,0,0,1,.327.327l-.037,4.362h4.147a.326.326,0,0,1,.327.327v3.2a.326.326,0,0,1-.327.327h-4.181l.036,9.235c0,1.6.8,2.109,2,2.109a6.565,6.565,0,0,0,2.108-.327.272.272,0,0,1,.327.254v2.909a.538.538,0,0,1-.291.436,10.721,10.721,0,0,1-3.417.618c-3.163,0-6.18-1.6-6.18-5.854Zm-22.538-3.817c0-5.418,3.127-9.781,8.216-9.781a6.722,6.722,0,0,1,5.416,2.363l-.109-1.67a.326.326,0,0,1,.327-.327h4.872a.326.326,0,0,1,.327.327l-.109,9.056.112,9.017a.326.326,0,0,1-.327.327h-4.835a.326.326,0,0,1-.327-.327l.073-1.854a6.86,6.86,0,0,1-5.528,2.545c-5.309,0-8.109-4.221-8.109-9.676Zm5.562-.291c0,4.218,1.454,6.363,4.072,6.327,2.654,0,4.072-2,4.108-5.963.037-4-1.381-6.181-4-6.218h-.139c-2.672,0-4.042,2.066-4.042,5.855ZM164.8,26a.326.326,0,0,1-.327-.327l.109-6.763-.036-4.727c-.037-2.254-1.272-3.345-2.763-3.345-1.745,0-3.636,1.345-4.254,4l.146,10.835a.326.326,0,0,1-.327.327H152.59a.326.326,0,0,1-.327-.327l.146-12.435L152.263.873a.326.326,0,0,1,.327-.327h4.763a.326.326,0,0,1,.327.327l-.109,8.471a6.769,6.769,0,0,1,5.671-2.508c4.217,0,6.8,2.508,6.689,8v4l.109,6.836a.326.326,0,0,1-.327.327ZM93.442,26a.326.326,0,0,1-.327-.327V15.235l.182-6,.036-1.163L87.117,25.706A.54.54,0,0,1,86.68,26H82.972a.54.54,0,0,1-.436-.291L75.74,7.381l.036,1.927.182,5.927V25.67a.326.326,0,0,1-.327.327H71.269a.326.326,0,0,1-.327-.327l.146-12.4L70.942.873a.326.326,0,0,1,.327-.327h6.722a.539.539,0,0,1,.436.291l6.8,18.325L91.625.836a.538.538,0,0,1,.436-.291H98.35a.326.326,0,0,1,.327.327l-.145,12.4.145,12.4A.326.326,0,0,1,98.35,26ZM59.1,26a.326.326,0,0,1-.327-.327l.145-12.4-.14-12.4A.326.326,0,0,1,59.1.546h4.763a.326.326,0,0,1,.327.327l-.146,12.4.146,12.4a.326.326,0,0,1-.327.327Zm-8.467,0a.326.326,0,0,1-.327-.327l.146-12.4L50.311.873a.326.326,0,0,1,.327-.327H55.4a.326.326,0,0,1,.327.327l-.145,12.4.145,12.4A.326.326,0,0,1,55.4,26ZM42.1,26a.326.326,0,0,1-.327-.327l.109-9.017L41.772,7.6a.326.326,0,0,1,.327-.327h4.908a.326.326,0,0,1,.327.327l-.11,9.054.109,9.017a.326.326,0,0,1-.327.327Zm-6.8,0a.524.524,0,0,1-.473-.291L32.939,22.07l-2.326-4.145L28.831,20.18l.037,5.49a.326.326,0,0,1-.327.327H23.775a.326.326,0,0,1-.327-.327l.145-12.4L23.449.873a.326.326,0,0,1,.327-.327h4.763a.326.326,0,0,1,.327.327l-.109,12.289v1.127l5.417-6.763a.847.847,0,0,1,.546-.254h5.344c.145,0,.182.146.109.254L34.391,14l6.762,11.707a.2.2,0,0,1-.182.291ZM42.1,5.454a.326.326,0,0,1-.327-.327V.873A.326.326,0,0,1,42.1.546h4.869A.326.326,0,0,1,47.3.873V5.127a.326.326,0,0,1-.327.327Z" transform="translate(4954.269 3332.256)" fill="#1d1d1d"></path><path d="M20.336,25.729l-5.082-5.082a.507.507,0,0,1,0-.717l1.989-1.989a.507.507,0,0,1,.717,0l5.082,5.082a.508.508,0,0,1,0,.718L21.053,25.73a.507.507,0,0,1-.717,0ZM18.6,16.4a.507.507,0,0,1-.508-.507v-2.81a.507.507,0,0,1,.508-.507h7.187a.507.507,0,0,1,.507.507V15.9a.507.507,0,0,1-.507.507Zm-1.355-5.365L15.254,9.049a.508.508,0,0,1,0-.718l5.082-5.082a.507.507,0,0,1,.717,0l1.989,1.989a.507.507,0,0,1,0,.717L17.96,11.038a.508.508,0,0,1-.718,0Zm-11.6,0L.562,5.956a.508.508,0,0,1,0-.717l1.99-1.99a.507.507,0,0,1,.717,0L8.351,8.331a.508.508,0,0,1,0,.718L6.362,11.038a.507.507,0,0,1-.717,0ZM10.4,8.2a.507.507,0,0,1-.507-.507V.507A.507.507,0,0,1,10.4,0h2.813a.507.507,0,0,1,.507.507V7.7a.507.507,0,0,1-.507.507Z" transform="translate(5114.178 3322.832)" fill="#1d1d1d"></path></g></g></svg>